<svg xmlns="http://www.w3.org/2000/svg" width="20" height="20" fill="none" viewBox="0 0 20 20">
    <g clip-path="url(#clip0)">
        <path fill="#fff" d="M13.258 10.103L20 14.366V5.66l-6.742 4.442zM0 5.66v8.706l6.742-4.263L0 5.661zM18.75 3.125H1.25C.626 3.125.13 3.59.037 4.189L10 10.752l9.962-6.563c-.093-.599-.588-1.064-1.212-1.064zM12.113 10.857l-1.769 1.165c-.105.07-.224.103-.344.103-.12 0-.238-.034-.343-.103l-1.77-1.166L.04 15.82c.097.594.589 1.055 1.21 1.055h17.5c.622 0 1.114-.461 1.21-1.055l-7.847-4.963z"/>
    </g>
    <defs>
        <clipPath id="clip0">
            <path fill="#fff" d="M0 0H20V20H0z"/>
        </clipPath>
    </defs>
</svg>
