<svg xmlns="http://www.w3.org/2000/svg" width="20" height="20" fill="none" viewBox="0 0 20 20">
    <path fill="#0275d8" d="M16.504 3.867V2.93c0-1.616-1.314-2.93-2.93-2.93H6.387c-1.616 0-2.93 1.314-2.93 2.93v.937h13.047zM4.629 12.46v6.368c0 .647.525 1.172 1.172 1.172h8.36c.646 0 1.171-.525 1.171-1.172v-6.367H4.629zm6.914 5H8.418c-.324 0-.586-.261-.586-.585 0-.324.262-.586.586-.586h3.125c.324 0 .586.262.586.586 0 .324-.262.586-.586.586zm0-2.5H8.418c-.324 0-.586-.261-.586-.585 0-.324.262-.586.586-.586h3.125c.324 0 .586.262.586.586 0 .324-.262.586-.586.586z"/>
    <path fill="#0275d8" d="M17.05 5.04H2.95C1.333 5.04.02 6.352.02 7.968v4.687c0 1.616 1.314 2.93 2.93 2.93h.507V12.46h-.352c-.323 0-.585-.262-.585-.586 0-.324.262-.586.585-.586H16.856c.323 0 .585.262.585.586 0 .324-.262.586-.585.586h-.352v3.125h.547c1.615 0 2.93-1.314 2.93-2.93V7.97c0-1.616-1.315-2.93-2.93-2.93zM4.98 8.71H3.105c-.323 0-.585-.261-.585-.585 0-.324.262-.586.585-.586H4.98c.324 0 .586.262.586.586 0 .324-.262.586-.586.586z"/>
</svg>
