<svg xmlns="http://www.w3.org/2000/svg" width="20" height="20" fill="none" viewBox="0 0 20 20">
    <path fill="#ff0000" d="M8.335 1.207h3.343v.563h1.207v-.641C12.885.506 12.379 0 11.757 0H8.256c-.622 0-1.128.506-1.128 1.129v.64h1.207v-.562zM15.673 6.553H4.34c-.31 0-.555.265-.53.574l.948 11.715C4.81 19.496 5.356 20 6.01 20h7.99c.656 0 1.201-.504 1.254-1.158l.947-11.715c.026-.31-.219-.574-.53-.574zM7.084 18.75l-.038.002c-.316 0-.582-.247-.601-.567L5.85 8.568c-.02-.333.233-.62.565-.64.332-.02.62.232.64.565l.593 9.618c.021.333-.232.619-.565.64zm3.533-.602c0 .333-.27.604-.604.604-.333 0-.603-.27-.603-.604V8.53c0-.333.27-.603.603-.603.333 0 .604.27.604.603v9.618zm3.545-9.582l-.567 9.617c-.019.321-.285.569-.602.569l-.036-.001c-.333-.02-.587-.306-.567-.639l.567-9.617c.02-.333.304-.587.638-.567.333.02.587.305.567.638zM17.76 4.69l-.397-1.188c-.104-.313-.398-.525-.728-.525H3.377c-.33 0-.624.212-.728.525L2.252 4.69c-.076.23.023.463.21.58.075.047.164.076.263.076h14.562c.099 0 .188-.029.264-.076.186-.117.285-.35.209-.58z"/>
</svg>
