<?xml version="1.0" encoding="UTF-8"?>
<!DOCTYPE svg PUBLIC "-//W3C//DTD SVG 1.1//EN" "http://www.w3.org/Graphics/SVG/1.1/DTD/svg11.dtd">
<!-- Creator: CorelDRAW X6 -->
<svg xmlns="http://www.w3.org/2000/svg" xml:space="preserve" width="0.860209in" height="0.860205in" version="1.1" style="shape-rendering:geometricPrecision; text-rendering:geometricPrecision; image-rendering:optimizeQuality; fill-rule:evenodd; clip-rule:evenodd"
viewBox="0 0 396 396"
 xmlns:xlink="http://www.w3.org/1999/xlink">
 <defs>
  <style type="text/css">
   <![CDATA[
    .fil0 {fill:#EBECEC}
    .fil1 {fill:#FEFEFE}
    .fil4 {fill:url(#id0)}
    .fil3 {fill:url(#id1)}
    .fil2 {fill:url(#id2)}
   ]]>
  </style>
  <linearGradient id="id0" gradientUnits="userSpaceOnUse" x1="252.292" y1="127.901" x2="267.702" y2="143.324">
   <stop offset="0" style="stop-color:#FFC107"/>
   <stop offset="0.509804" style="stop-color:#F44336"/>
   <stop offset="0.988235" style="stop-color:#9C27B0"/>
   <stop offset="1" style="stop-color:#9C27B0"/>
  </linearGradient>
  <linearGradient id="id1" gradientUnits="userSpaceOnUse" xlink:href="#id0" x1="139.962" y1="139.953" x2="255.658" y2="255.649">
  </linearGradient>
  <linearGradient id="id2" gradientUnits="userSpaceOnUse" xlink:href="#id0" x1="77.9927" y1="86.5423" x2="317.627" y2="309.058">
  </linearGradient>
 </defs>
 <g id="Layer_x0020_1">
  <metadata id="CorelCorpID_0Corel-Layer"/>
  <circle class="fil0" cx="198" cy="198" r="198"/>
  <circle class="fil1" cx="198" cy="198" r="163"/>
  <g id="_250148264">
   <path class="fil2" d="M241 82l-87 0c-40,0 -72,32 -72,72l0 87c0,40 32,72 72,72l87 0c40,0 72,-32 72,-72l0 -87c0,-40 -32,-72 -72,-72zm51 159c0,28 -23,51 -51,51l-87 0c-28,0 -51,-23 -51,-51l0 -87c0,-28 23,-51 51,-51l87 0c28,0 51,23 51,51l0 87z"/>
   <path class="fil3" d="M198 140c-32,0 -58,26 -58,58 0,32 26,58 58,58 32,0 58,-26 58,-58 0,-32 -26,-58 -58,-58zm0 94c-20,0 -36,-16 -36,-36 0,-20 16,-36 36,-36 20,0 36,16 36,36 0,20 -16,36 -36,36z"/>
   <circle class="fil4" cx="260" cy="136" r="8"/>
   <g>
   </g>
   <g>
   </g>
   <g>
   </g>
   <g>
   </g>
   <g>
   </g>
   <g>
   </g>
   <g>
   </g>
   <g>
   </g>
   <g>
   </g>
   <g>
   </g>
   <g>
   </g>
   <g>
   </g>
   <g>
   </g>
   <g>
   </g>
   <g>
   </g>
  </g>
 </g>
</svg>
