<?xml version="1.0" encoding="UTF-8"?>
<!DOCTYPE svg PUBLIC "-//W3C//DTD SVG 1.1//EN" "http://www.w3.org/Graphics/SVG/1.1/DTD/svg11.dtd">
<!-- Creator: CorelDRAW X6 -->
<svg xmlns="http://www.w3.org/2000/svg" xml:space="preserve" width="0.860185in" height="0.860205in" version="1.1" style="shape-rendering:geometricPrecision; text-rendering:geometricPrecision; image-rendering:optimizeQuality; fill-rule:evenodd; clip-rule:evenodd"
viewBox="0 0 343 343"
 xmlns:xlink="http://www.w3.org/1999/xlink">
 <defs>
  <style type="text/css">
   <![CDATA[
    .fil0 {fill:#EBECEC}
    .fil1 {fill:#FEFEFE}
    .fil2 {fill:#03A9F4}
   ]]>
  </style>
 </defs>
 <g id="Layer_x0020_1">
  <metadata id="CorelCorpID_0Corel-Layer"/>
  <circle class="fil0" cx="172" cy="172" r="172"/>
  <circle class="fil1" cx="172" cy="172" r="141"/>
  <g id="_250149344">
   <path class="fil2" d="M274 107c-1,-2 -4,-2 -5,-1 -2,1 -4,2 -6,2 3,-4 5,-8 7,-13 1,-2 -1,-5 -3,-6 -1,0 -3,0 -4,1 -7,4 -14,7 -22,8 -16,-15 -39,-16 -57,-4 -14,9 -21,25 -19,41 -29,-3 -56,-17 -75,-40 -1,-1 -2,-2 -4,-2 -1,0 -3,1 -4,2 -6,10 -8,22 -5,34 2,6 4,11 8,16 -2,-1 -3,-2 -5,-3 -2,-2 -5,-1 -6,1 -1,1 -1,2 -1,3 0,17 9,32 24,40 -2,0 -4,-1 -6,-1 -2,-1 -5,1 -6,3 0,1 0,2 0,3 6,14 19,25 34,28 -14,8 -31,12 -47,10 -2,0 -4,1 -5,3 -1,2 0,4 2,5 20,12 43,18 67,19 22,0 44,-7 63,-19 36,-24 58,-66 55,-104 8,-6 14,-13 20,-20 1,-2 1,-4 0,-5z"/>
   <g>
   </g>
   <g>
   </g>
   <g>
   </g>
   <g>
   </g>
   <g>
   </g>
   <g>
   </g>
   <g>
   </g>
   <g>
   </g>
   <g>
   </g>
   <g>
   </g>
   <g>
   </g>
   <g>
   </g>
   <g>
   </g>
   <g>
   </g>
   <g>
   </g>
  </g>
 </g>
</svg>
