<?xml version="1.0" encoding="UTF-8"?>
<!DOCTYPE svg PUBLIC "-//W3C//DTD SVG 1.1//EN" "http://www.w3.org/Graphics/SVG/1.1/DTD/svg11.dtd">
<!-- Creator: CorelDRAW X6 -->
<svg xmlns="http://www.w3.org/2000/svg" xml:space="preserve" width="4.32766in" height="4.32766in" version="1.1" style="shape-rendering:geometricPrecision; text-rendering:geometricPrecision; image-rendering:optimizeQuality; fill-rule:evenodd; clip-rule:evenodd"
viewBox="0 0 394 394"
 xmlns:xlink="http://www.w3.org/1999/xlink">
 <defs>
  <style type="text/css">
   <![CDATA[
    .str0 {stroke:#7AD06D;stroke-width:3.78893}
    .fil0 {fill:#EBECEC}
    .fil1 {fill:#FEFEFE}
    .fil2 {fill:#7AD06D}
   ]]>
  </style>
 </defs>
 <g id="Layer_x0020_1">
  <metadata id="CorelCorpID_0Corel-Layer"/>
  <g id="_331596328">
   <circle class="fil0" cx="197" cy="197" r="197"/>
   <circle class="fil1" cx="197" cy="197" r="162"/>
   <g>
    <path class="fil2 str0" d="M191 85c-59,3 -106,52 -106,112 0,18 4,35 12,50l-12 57c-1,3 2,6 5,5l56 -13c14,7 31,11 48,12 61,1 111,-47 113,-108 2,-65 -52,-118 -117,-115zm67 173c-16,16 -38,26 -62,26 -14,0 -27,-3 -39,-9l-8 -4 -35 8 7 -35 -4 -8c-6,-12 -9,-26 -9,-40 0,-23 9,-45 26,-62 16,-16 39,-26 62,-26 23,0 45,9 62,26 16,16 26,38 26,62 0,23 -9,45 -26,62z"/>
    <path class="fil2 str0" d="M251 220l-22 -6c-3,-1 -6,0 -8,2l-5 5c-2,2 -6,3 -9,2 -10,-4 -32,-23 -37,-33 -2,-3 -1,-6 1,-9l5 -6c2,-2 2,-5 1,-8l-9 -21c-2,-5 -8,-6 -13,-3 -6,5 -13,13 -14,21 -2,15 5,34 29,57 28,26 51,30 66,26 8,-2 15,-10 19,-17 3,-5 1,-11 -5,-12z"/>
   </g>
  </g>
 </g>
</svg>
