<?xml version="1.0" encoding="UTF-8"?>
<!DOCTYPE svg PUBLIC "-//W3C//DTD SVG 1.1//EN" "http://www.w3.org/Graphics/SVG/1.1/DTD/svg11.dtd">
<!-- Creator: CorelDRAW X6 -->
<svg xmlns="http://www.w3.org/2000/svg" xml:space="preserve" width="0.860205in" height="0.860205in" version="1.1" style="shape-rendering:geometricPrecision; text-rendering:geometricPrecision; image-rendering:optimizeQuality; fill-rule:evenodd; clip-rule:evenodd"
viewBox="0 0 174 174"
 xmlns:xlink="http://www.w3.org/1999/xlink">
 <defs>
  <style type="text/css">
   <![CDATA[
    .fil0 {fill:#EBECEC}
    .fil1 {fill:#FEFEFE}
    .fil2 {fill:red}
    .fil3 {fill:white}
   ]]>
  </style>
 </defs>
 <g id="Layer_x0020_1">
  <metadata id="CorelCorpID_0Corel-Layer"/>
  <g id="_325054960">
   <circle class="fil0" cx="87" cy="87" r="87"/>
   <circle class="fil1" cx="87" cy="87" r="71"/>
   <g>
    <path class="fil2" d="M132 64c-1,-4 -4,-7 -8,-8 -7,-2 -37,-2 -37,-2 0,0 -30,0 -37,2 -4,1 -7,4 -8,8 -2,7 -2,23 -2,23 0,0 0,15 2,23 1,4 4,7 8,8 7,2 37,2 37,2 0,0 30,0 37,-2 4,-1 7,-4 8,-8 2,-7 2,-23 2,-23 0,0 0,-15 -2,-23zm0 0z"/>
    <path class="fil3" d="M77 101l25 -14 -25 -14 0 28zm0 0z"/>
   </g>
  </g>
 </g>
</svg>
