<svg width="16" height="21" viewBox="0 0 16 21" fill="none" xmlns="http://www.w3.org/2000/svg">
<path d="M3.62793 16.6552H10.8693V18.1034H3.62793V16.6552Z" fill="#6896CC"/>
<path d="M5.07623 19.5517H9.42106V21H5.07623V19.5517Z" fill="#6896CC"/>
<path d="M3.49395 12.4117C2.81577 11.8945 2.27514 11.2184 1.91968 10.4431C1.56422 9.66775 1.40481 8.81692 1.4555 7.9655C1.45742 6.42966 2.06838 4.95728 3.15438 3.87127C4.24038 2.78527 5.71277 2.17431 7.24861 2.1724V0.724121C5.32872 0.726229 3.48807 1.48984 2.13051 2.8474C0.772942 4.20497 0.00933632 6.04561 0.00722792 7.9655C-0.0418678 9.01751 0.159692 10.0661 0.595303 11.025C1.03091 11.9838 1.68811 12.8255 2.51275 13.4805C3.24557 14.1576 3.62792 14.5414 3.62792 15.2069H5.07619C5.07619 13.8745 4.2724 13.1315 3.49395 12.4117Z" fill="#6896CC"/>
<path d="M12.8969 9.41382C12.6299 10.6033 11.9589 11.6635 10.9982 12.4139C10.2226 13.1323 9.42102 13.8745 9.42102 15.2069H10.8693C10.8693 14.5407 11.2502 14.1569 11.9808 13.4791C13.2507 12.4638 14.1026 11.0168 14.3741 9.41382H12.8969Z" fill="#6896CC"/>
<path d="M15.9311 4.34483C15.9311 3.4855 15.6762 2.64548 15.1988 1.93097C14.7214 1.21647 14.0428 0.659582 13.2489 0.330732C12.455 0.00188255 11.5814 -0.0841595 10.7386 0.0834866C9.89578 0.251133 9.1216 0.664937 8.51397 1.27257C7.90633 1.88021 7.49253 2.65438 7.32488 3.4972C7.15723 4.34001 7.24328 5.21361 7.57213 6.00752C7.90098 6.80144 8.45786 7.48001 9.17237 7.95742C9.88687 8.43484 10.7269 8.68966 11.5862 8.68966C12.7381 8.68832 13.8425 8.23013 14.657 7.41561C15.4715 6.60108 15.9297 5.49674 15.9311 4.34483ZM14.4828 4.34483C14.4801 4.86026 14.3382 5.36539 14.0722 5.80686L10.1242 1.85886C10.5657 1.59287 11.0708 1.45102 11.5862 1.44828C12.3541 1.44924 13.0903 1.75472 13.6333 2.29772C14.1763 2.84072 14.4818 3.57691 14.4828 4.34483ZM8.68967 4.34483C8.69237 3.8294 8.83423 3.32427 9.10026 2.8828L13.0483 6.8308C12.6068 7.09679 12.1016 7.23864 11.5862 7.24138C10.8183 7.24042 10.0821 6.93494 9.53911 6.39194C8.99611 5.84894 8.69063 5.11275 8.68967 4.34483Z" fill="#6896CC"/>
</svg>
