<svg width="16" height="21" viewBox="0 0 16 21" fill="none" xmlns="http://www.w3.org/2000/svg">
<path d="M3.50702 16.8H10.507V18.2H3.50702V16.8Z" fill="#6896CC"/>
<path d="M4.90701 19.6H9.10701V21H4.90701V19.6Z" fill="#6896CC"/>
<path d="M3.37749 12.698C2.72191 12.198 2.19931 11.5445 1.85569 10.795C1.51208 10.0455 1.35799 9.22306 1.40699 8.40002C1.40884 6.91538 1.99943 5.49207 3.04923 4.44227C4.09904 3.39247 5.52234 2.80188 7.00699 2.80002V1.40002C5.1511 1.40206 3.3718 2.14021 2.05949 3.45253C0.747177 4.76484 0.00902511 6.54413 0.00698699 8.40002C-0.0404722 9.41697 0.154369 10.4306 0.57546 11.3575C0.99655 12.2844 1.63184 13.098 2.42899 13.7312C3.13739 14.3857 3.50699 14.7567 3.50699 15.4H4.90699C4.90699 14.112 4.12999 13.3938 3.37749 12.698Z" fill="#6896CC"/>
<path d="M12.467 9.79999C12.2089 10.9498 11.5603 11.9747 10.6316 12.7001C9.88189 13.3945 9.10699 14.112 9.10699 15.4H10.507C10.507 14.756 10.8752 14.385 11.5815 13.7298C12.809 12.7483 13.6325 11.3495 13.895 9.79999H12.467Z" fill="#6896CC"/>
<path d="M13.5663 7H8.83293L11.2003 2.2652L13.5663 7ZM11.2003 7.60274e-08C11.0702 -6.05408e-05 10.9427 0.0361274 10.8321 0.104503C10.7214 0.172879 10.632 0.270737 10.5738 0.3871L7.07383 7.3871C7.02048 7.49385 6.99532 7.61246 7.00072 7.73167C7.00612 7.85088 7.0419 7.96673 7.10467 8.06822C7.16745 8.16971 7.25512 8.25347 7.35937 8.31153C7.46363 8.3696 7.58099 8.40006 7.70033 8.4H14.7003C14.8159 8.40002 14.9297 8.37141 15.0316 8.31674C15.1334 8.26206 15.2201 8.183 15.284 8.08664C15.3478 7.99028 15.3868 7.8796 15.3975 7.7645C15.4081 7.64939 15.3901 7.53344 15.345 7.427L11.8268 0.3871C11.7687 0.270737 11.6793 0.172879 11.5686 0.104503C11.4579 0.0361274 11.3304 -6.05408e-05 11.2003 7.60274e-08Z" fill="#6896CC"/>
</svg>
