<svg width="7" height="8" viewBox="0 0 7 8" fill="none" xmlns="http://www.w3.org/2000/svg">
<path d="M5.53301 3.68919C5.90007 3.30876 6.12512 2.79463 6.12512 2.22941V2.11854C6.12512 0.948974 5.16268 6.10352e-05 3.97629 6.10352e-05H0.74377C0.578812 6.10352e-05 0.444443 0.133757 0.444443 0.297887V7.67941C0.444443 7.85658 0.588644 8.00006 0.766712 8.00006H4.24831C5.52646 8.00006 6.56209 6.97615 6.56209 5.71202V5.59245C6.56209 4.79897 6.15352 4.10006 5.53301 3.68919ZM1.49318 1.04354H3.94789C4.57167 1.04354 5.07638 1.52615 5.07638 2.12289V2.22615C5.07638 2.8218 4.57058 3.3055 3.94789 3.3055H1.49318V1.04354ZM5.49806 5.71093C5.49806 6.39463 4.93327 6.94897 4.23629 6.94897H1.49318V4.3555H4.23629C4.93327 4.3555 5.49806 4.90984 5.49806 5.59354V5.71093Z" fill="#6896CC"/>
</svg>
