<svg width="24" height="24" viewBox="0 0 24 24" fill="none" xmlns="http://www.w3.org/2000/svg">
<path fill-rule="evenodd" clip-rule="evenodd" d="M13.2552 2.43874C12.8862 1.18624 11.1132 1.18624 10.7442 2.43874L10.6032 2.91724C10.4847 3.31916 10.2777 3.68946 9.99743 4.00102C9.7172 4.31258 9.37082 4.55751 8.98367 4.71786C8.59652 4.87822 8.1784 4.94994 7.75994 4.92777C7.34148 4.9056 6.93328 4.7901 6.56524 4.58974L6.12724 4.34974C4.98124 3.72724 3.72724 4.97974 4.35124 6.12724L4.58974 6.56524C4.7901 6.93328 4.9056 7.34148 4.92777 7.75994C4.94994 8.1784 4.87822 8.59652 4.71786 8.98367C4.55751 9.37082 4.31258 9.7172 4.00102 9.99743C3.68946 10.2777 3.31916 10.4847 2.91724 10.6032L2.43874 10.7442C1.18624 11.1132 1.18624 12.8862 2.43874 13.2552L2.91724 13.3962C3.31937 13.5148 3.68987 13.7218 4.00159 14.0021C4.3133 14.2825 4.55833 14.629 4.71871 15.0164C4.87908 15.4037 4.95074 15.822 4.92842 16.2407C4.90611 16.6593 4.79038 17.0676 4.58974 17.4357L4.34974 17.8722C3.72724 19.0182 4.97974 20.2722 6.12724 19.6482L6.56524 19.4097C6.93338 19.2094 7.34168 19.094 7.76022 19.0719C8.17876 19.0498 8.59694 19.1217 8.98411 19.2822C9.37129 19.4427 9.71764 19.6878 9.9978 19.9995C10.278 20.3112 10.4848 20.6817 10.6032 21.0837L10.7442 21.5607C11.1132 22.8132 12.8862 22.8132 13.2552 21.5607L13.3962 21.0822C13.5148 20.6801 13.7218 20.3096 14.0021 19.9979C14.2825 19.6862 14.629 19.4411 15.0164 19.2808C15.4037 19.1204 15.822 19.0487 16.2407 19.0711C16.6593 19.0934 17.0676 19.2091 17.4357 19.4097L17.8722 19.6497C19.0182 20.2722 20.2722 19.0197 19.6482 17.8722L19.4097 17.4357C19.2091 17.0675 19.0934 16.6591 19.0712 16.2404C19.049 15.8217 19.1208 15.4033 19.2813 15.0159C19.4418 14.6285 19.687 14.282 19.9989 14.0018C20.3108 13.7215 20.6815 13.5146 21.0837 13.3962L21.5607 13.2552C22.8132 12.8862 22.8132 11.1132 21.5607 10.7442L21.0822 10.6032C20.6803 10.4847 20.31 10.2777 19.9985 9.99743C19.6869 9.7172 19.442 9.37082 19.2816 8.98367C19.1213 8.59652 19.0495 8.1784 19.0717 7.75994C19.0939 7.34148 19.2094 6.93328 19.4097 6.56524L19.6497 6.12724C20.2722 4.98124 19.0197 3.72724 17.8722 4.35124L17.4357 4.58974C17.0676 4.79067 16.6591 4.90661 16.2403 4.92908C15.8215 4.95154 15.4029 4.87995 15.0154 4.71955C14.6279 4.55916 14.2812 4.31403 14.0007 4.00216C13.7203 3.69028 13.5132 3.31958 13.3947 2.91724L13.2537 2.43874H13.2552ZM9.30574 2.01424C10.0962 -0.670762 13.9032 -0.670762 14.6937 2.01424L14.8347 2.49274C14.8899 2.68017 14.9864 2.85287 15.117 2.99818C15.2476 3.14349 15.4091 3.25772 15.5896 3.33252C15.7701 3.40731 15.9651 3.44076 16.1602 3.43041C16.3553 3.42007 16.5457 3.3662 16.7172 3.27274L17.1552 3.03274C19.6152 1.69474 22.3062 4.38424 20.9652 6.84424L20.7267 7.28224C20.6333 7.45383 20.5794 7.64415 20.5691 7.83927C20.5587 8.03439 20.5922 8.22934 20.667 8.40985C20.7418 8.59036 20.856 8.75184 21.0013 8.88246C21.1466 9.01308 21.3193 9.10953 21.5067 9.16474L21.9852 9.30574C24.6702 10.0962 24.6702 13.9032 21.9852 14.6937L21.5067 14.8347C21.3193 14.8899 21.1466 14.9864 21.0013 15.117C20.856 15.2476 20.7418 15.4091 20.667 15.5896C20.5922 15.7701 20.5587 15.9651 20.5691 16.1602C20.5794 16.3553 20.6333 16.5457 20.7267 16.7172L20.9667 17.1552C22.3062 19.6152 19.6137 22.3062 17.1552 20.9652L16.7172 20.7267C16.5457 20.6333 16.3553 20.5794 16.1602 20.5691C15.9651 20.5587 15.7701 20.5922 15.5896 20.667C15.4091 20.7418 15.2476 20.856 15.117 21.0013C14.9864 21.1466 14.8899 21.3193 14.8347 21.5067L14.6937 21.9852C13.9032 24.6702 10.0962 24.6702 9.30574 21.9852L9.16474 21.5067C9.10953 21.3193 9.01308 21.1466 8.88246 21.0013C8.75184 20.856 8.59036 20.7418 8.40985 20.667C8.22934 20.5922 8.03439 20.5587 7.83927 20.5691C7.64415 20.5794 7.45383 20.6333 7.28224 20.7267L6.84424 20.9667C4.38424 22.3062 1.69474 19.6137 3.03424 17.1552L3.27274 16.7172C3.3662 16.5457 3.42007 16.3553 3.43041 16.1602C3.44076 15.9651 3.40731 15.7701 3.33252 15.5896C3.25772 15.4091 3.14349 15.2476 2.99818 15.117C2.85287 14.9864 2.68017 14.8899 2.49274 14.8347L2.01424 14.6937C-0.670762 13.9032 -0.670762 10.0962 2.01424 9.30574L2.49274 9.16474C2.68017 9.10953 2.85287 9.01308 2.99818 8.88246C3.14349 8.75184 3.25772 8.59036 3.33252 8.40985C3.40731 8.22934 3.44076 8.03439 3.43041 7.83927C3.42007 7.64415 3.3662 7.45383 3.27274 7.28224L3.03274 6.84424C1.69474 4.38424 4.38574 1.69474 6.84424 3.03424L7.28224 3.27274C7.45383 3.3662 7.64415 3.42007 7.83927 3.43041C8.03439 3.44076 8.22934 3.40731 8.40985 3.33252C8.59036 3.25772 8.75184 3.14349 8.88246 2.99818C9.01308 2.85287 9.10953 2.68017 9.16474 2.49274L9.30574 2.01424Z" fill="#6896CC"/>
<path fill-rule="evenodd" clip-rule="evenodd" d="M12 8.63098C11.1065 8.63098 10.2495 8.98593 9.61774 9.61774C8.98593 10.2495 8.63098 11.1065 8.63098 12C8.63098 12.8935 8.98593 13.7504 9.61774 14.3822C10.2495 15.014 11.1065 15.369 12 15.369C12.8935 15.369 13.7504 15.014 14.3822 14.3822C15.014 13.7504 15.369 12.8935 15.369 12C15.369 11.1065 15.014 10.2495 14.3822 9.61774C13.7504 8.98593 12.8935 8.63098 12 8.63098ZM7.13098 12C7.13098 11.3606 7.25692 10.7274 7.50161 10.1367C7.7463 9.54596 8.10495 9.00921 8.55708 8.55708C9.00921 8.10495 9.54596 7.7463 10.1367 7.50161C10.7274 7.25692 11.3606 7.13098 12 7.13098C12.6394 7.13098 13.2725 7.25692 13.8633 7.50161C14.454 7.7463 14.9908 8.10495 15.4429 8.55708C15.895 9.00921 16.2537 9.54596 16.4984 10.1367C16.743 10.7274 16.869 11.3606 16.869 12C16.869 13.2913 16.356 14.5298 15.4429 15.4429C14.5298 16.356 13.2913 16.869 12 16.869C10.7086 16.869 9.47019 16.356 8.55708 15.4429C7.64396 14.5298 7.13098 13.2913 7.13098 12Z" fill="#6896CC"/>
</svg>
