<svg width="19" height="21" viewBox="0 0 19 21" fill="none" xmlns="http://www.w3.org/2000/svg">
<path d="M3.75751 16.5H11.2575V18H3.75751V16.5Z" fill="#6896CC"/>
<path d="M5.25751 19.5H9.75751V21H5.25751V19.5Z" fill="#6896CC"/>
<path d="M3.61874 12.105C2.91633 11.5693 2.3564 10.8691 1.98824 10.0661C1.62008 9.26304 1.45498 8.38183 1.50749 7.5C1.50947 5.90931 2.14225 4.38434 3.26704 3.25955C4.39183 2.13476 5.9168 1.50198 7.50749 1.5V0C5.51903 0.0021837 3.61265 0.793061 2.2066 2.19911C0.800547 3.60516 0.00966976 5.51155 0.00748606 7.5C-0.0433631 8.58959 0.165396 9.67566 0.616564 10.6688C1.06773 11.6618 1.7484 12.5335 2.60249 13.212C3.36149 13.9132 3.75749 14.3108 3.75749 15H5.25749C5.25749 13.62 4.42499 12.8505 3.61874 12.105Z" fill="#6896CC"/>
<path d="M11.2575 5.6925L8.56501 3L7.50751 4.0575L11.2575 7.8075L18.0075 1.0575L16.95 0L11.2575 5.6925Z" fill="#6896CC"/>
<path d="M13.3575 9C13.081 10.232 12.3861 11.33 11.391 12.1072C10.5878 12.8512 9.75751 13.62 9.75751 15H11.2575C11.2575 14.31 11.652 13.9125 12.4088 13.2105C13.724 12.159 14.6063 10.6602 14.8875 9H13.3575Z" fill="#6896CC"/>
</svg>
