<svg width="13" height="10" viewBox="0 0 13 10" fill="none" xmlns="http://www.w3.org/2000/svg">
<path d="M12.0714 0H0.928571C0.682299 0 0.446113 0.0978313 0.271972 0.271972C0.0978313 0.446113 0 0.682299 0 0.928571V8.35714C0 8.60342 0.0978313 8.8396 0.271972 9.01374C0.446113 9.18788 0.682299 9.28571 0.928571 9.28571H12.0714C12.3177 9.28571 12.5539 9.18788 12.728 9.01374C12.9022 8.8396 13 8.60342 13 8.35714V0.928571C13 0.682299 12.9022 0.446113 12.728 0.271972C12.5539 0.0978313 12.3177 0 12.0714 0ZM11.05 0.928571L6.5 4.07643L1.95 0.928571H11.05ZM0.928571 8.35714V1.35107L6.23536 5.02357C6.31308 5.07749 6.40541 5.10638 6.5 5.10638C6.59459 5.10638 6.68692 5.07749 6.76464 5.02357L12.0714 1.35107V8.35714H0.928571Z" fill="#002958"/>
</svg>
