<svg width="10" height="10" viewBox="0 0 10 10" fill="none" xmlns="http://www.w3.org/2000/svg">
<path d="M9.6 2.4125H6.4V1C6.4 0.77875 6.22125 0.6 6 0.6H0.9V0.1C0.9 0.045 0.855 0 0.8 0H0.1C0.045 0 0 0.045 0 0.1V9.9C0 9.955 0.045 10 0.1 10H0.8C0.855 10 0.9 9.955 0.9 9.9V6.6H4V8.0125C4 8.23375 4.17875 8.4125 4.4 8.4125H9.6C9.82125 8.4125 10 8.23375 10 8.0125V2.8125C10 2.59125 9.82125 2.4125 9.6 2.4125ZM0.9 5.7V1.5H5.5V5.7H0.9ZM9.1 7.5125H4.9V6.6H6.3C6.355 6.6 6.4 6.555 6.4 6.5V3.3125H9.1V7.5125Z" fill="#0F5BCE"/>
<path fill-rule="evenodd" clip-rule="evenodd" d="M3.26078 1.30432H2.06513V2.49997H3.26078L3.26078 3.69562L2.06513 3.69562V4.89127L3.26078 4.89126V6.08691H4.45644V4.89126H3.26078V3.69562H4.45644V2.49997L3.26078 2.49997V1.30432ZM2.06513 2.49997H0.86948V3.69562H2.06513V2.49997ZM2.06513 4.89126H0.86948V6.08691H2.06513V4.89126ZM4.45644 3.69562H5.65209V4.89127H4.45644V3.69562ZM5.65209 1.30432H4.45644V2.49997H5.65209V1.30432Z" fill="#0F5BCE"/>
<path fill-rule="evenodd" clip-rule="evenodd" d="M6.73913 3.04352H5.54348V4.23917H6.73913L6.73913 5.43482L5.54348 5.43481V6.63046L6.73913 6.63046V7.82611H7.93478V6.63046H6.73913V5.43482H7.93478V4.23916L6.73913 4.23917V3.04352ZM4.34783 6.63046H5.54348V7.82611H4.34783V6.63046ZM7.93478 5.43481H9.13043V6.63046H7.93478V5.43481ZM9.13043 3.04352H7.93478V4.23917H9.13043V3.04352Z" fill="#0F5BCE"/>
</svg>
