<svg width="14" height="14" viewBox="0 0 14 14" fill="none" xmlns="http://www.w3.org/2000/svg">
<path d="M0.954891 3.86035H5.04378V2.05549C5.04378 1.77278 5.27218 1.54438 5.55489 1.54438H12.0716V0.905488C12.0716 0.83521 12.1291 0.77771 12.1993 0.77771H13.0938C13.1641 0.77771 13.2216 0.83521 13.2216 0.905488V13.4277C13.2216 13.498 13.1641 13.5555 13.0938 13.5555H12.1993C12.1291 13.5555 12.0716 13.498 12.0716 13.4277V9.21104H8.11045V11.0159C8.11045 11.2986 7.88204 11.527 7.59934 11.527H0.954891C0.672183 11.527 0.443781 11.2986 0.443781 11.0159V4.37146C0.443781 4.08875 0.672183 3.86035 0.954891 3.86035ZM12.0716 8.06104V2.69438H6.19378V8.06104H12.0716ZM1.59378 10.377H6.96045V9.21104H5.17156C5.10128 9.21104 5.04378 9.15354 5.04378 9.08327V5.01035H1.59378V10.377Z" fill="#5AEA16"/>
</svg>
