<svg width="13" height="14" viewBox="0 0 13 14" fill="none" xmlns="http://www.w3.org/2000/svg">
<path d="M12.2667 3.86041H8.17778V2.05555C8.17778 1.77284 7.94937 1.54444 7.66667 1.54444H1.15V0.905549C1.15 0.835271 1.0925 0.777771 1.02222 0.777771H0.127778C0.0575 0.777771 0 0.835271 0 0.905549V13.4278C0 13.498 0.0575 13.5555 0.127778 13.5555H1.02222C1.0925 13.5555 1.15 13.498 1.15 13.4278V9.2111H5.11111V11.016C5.11111 11.2987 5.33951 11.5271 5.62222 11.5271H12.2667C12.5494 11.5271 12.7778 11.2987 12.7778 11.016V4.37152C12.7778 4.08881 12.5494 3.86041 12.2667 3.86041ZM1.15 8.0611V2.69444H7.02778V8.0611H1.15ZM11.6278 10.3771H6.26111V9.2111H8.05C8.12028 9.2111 8.17778 9.1536 8.17778 9.08333V5.01041H11.6278V10.3771Z" fill="#5AEA16"/>
<path fill-rule="evenodd" clip-rule="evenodd" d="M4.16655 2.4444H2.63877V3.97217H1.11099V5.49995H2.63877V7.02773H1.11099V8.55551H2.63877V7.02773H4.16655V8.55551H5.69433V7.02773H7.2221V5.49995L5.69433 5.49995V3.97217H7.2221V2.4444H5.69433L5.69433 3.97217H4.16655V2.4444ZM4.16655 5.49995H5.69433V7.02773H4.16655V5.49995ZM4.16655 5.49995V3.97217H2.63877V5.49995H4.16655Z" fill="#5AEA16"/>
<path fill-rule="evenodd" clip-rule="evenodd" d="M8.6111 4.66669H7.08332V6.19446H8.6111V7.72224H7.08332V9.25002H5.55554V10.7778H7.08332V9.25002H8.6111V10.7778H10.1389V9.25002L11.6667 9.25002V7.72224H10.1389V6.19446H11.6667V4.66669H10.1389V6.19446H8.6111V4.66669ZM10.1389 7.72224V9.25002H8.6111V7.72224H10.1389Z" fill="#5AEA16"/>
</svg>
