<svg width="19" height="21" viewBox="0 0 19 21" fill="none" xmlns="http://www.w3.org/2000/svg">
<path d="M3.7575 16.5H11.2575V18H3.7575V16.5Z" fill="#6896CC"/>
<path d="M5.2575 19.5H9.7575V21H5.2575V19.5Z" fill="#6896CC"/>
<path d="M3.61874 12.105C2.91633 11.5693 2.3564 10.8691 1.98824 10.0661C1.62008 9.26304 1.45498 8.38183 1.50749 7.5C1.50947 5.90931 2.14225 4.38434 3.26704 3.25955C4.39183 2.13476 5.9168 1.50198 7.50749 1.5V0C5.51903 0.0021837 3.61265 0.793061 2.2066 2.19911C0.800547 3.60516 0.00966976 5.51155 0.00748606 7.5C-0.0433631 8.58959 0.165396 9.67566 0.616564 10.6688C1.06773 11.6618 1.7484 12.5335 2.60249 13.212C3.36149 13.9132 3.75749 14.3108 3.75749 15H5.25749C5.25749 13.62 4.42499 12.8505 3.61874 12.105Z" fill="#6896CC"/>
<path d="M11.391 12.1072C10.5878 12.8512 9.75751 13.62 9.75751 15H11.2575C11.2575 14.31 11.652 13.9125 12.4088 13.2105C13.2627 12.532 13.9435 11.6607 14.3953 10.668C14.8471 9.67526 15.0569 8.58955 15.0075 7.5H13.5075C13.5586 8.38251 13.3923 9.26407 13.0233 10.0673C12.6543 10.8706 12.0938 11.5711 11.391 12.1072Z" fill="#6896CC"/>
<path d="M9.38251 5.25C10.0038 5.25 10.5075 4.74632 10.5075 4.125C10.5075 3.50368 10.0038 3 9.38251 3C8.76119 3 8.25751 3.50368 8.25751 4.125C8.25751 4.74632 8.76119 5.25 9.38251 5.25Z" fill="#6896CC"/>
<path d="M16.8825 5.25C17.5038 5.25 18.0075 4.74632 18.0075 4.125C18.0075 3.50368 17.5038 3 16.8825 3C16.2612 3 15.7575 3.50368 15.7575 4.125C15.7575 4.74632 16.2612 5.25 16.8825 5.25Z" fill="#6896CC"/>
<path d="M13.1325 5.25C13.7538 5.25 14.2575 4.74632 14.2575 4.125C14.2575 3.50368 13.7538 3 13.1325 3C12.5112 3 12.0075 3.50368 12.0075 4.125C12.0075 4.74632 12.5112 5.25 13.1325 5.25Z" fill="#6896CC"/>
</svg>
