<svg width="9" height="9" viewBox="0 0 9 9" fill="none" xmlns="http://www.w3.org/2000/svg">
<path d="M1.25274 8.29938C1.28795 8.29938 1.32316 8.29503 1.35793 8.28634L3.09671 7.85164C3.17321 7.83252 3.2432 7.79296 3.29884 7.73732L8.64252 2.39363C8.80684 2.22932 8.89725 2.0111 8.89725 1.77898C8.89725 1.54685 8.80684 1.32863 8.64252 1.16432L7.9531 0.474895C7.62447 0.146267 7.05242 0.146267 6.72379 0.474895L1.3801 5.81858C1.32449 5.87426 1.28498 5.94396 1.26578 6.02028L0.831084 7.75905C0.815027 7.82315 0.813794 7.89006 0.827478 7.9547C0.841161 8.01935 0.869402 8.08002 0.910052 8.13211C0.950703 8.1842 1.00269 8.22634 1.06207 8.25533C1.12145 8.28431 1.18666 8.29938 1.25274 8.29938ZM7.33844 1.08955L8.02787 1.77898L7.33844 2.4684L6.64902 1.77898L7.33844 1.08955ZM2.07996 6.34804L6.03436 2.39363L6.72379 3.08306L2.76895 7.03746L1.85 7.26698L2.07996 6.34804Z" fill="#5AEA16"/>
</svg>
