<svg width="17" height="23" viewBox="0 0 17 23" fill="none" xmlns="http://www.w3.org/2000/svg">
<path d="M15.0964 2.875H14.1667C13.8715 2.24609 13.237 1.93164 12.263 1.93164H9.42969V0.943359C9.42969 0.314453 9.11979 0 8.5 0C7.88021 0 7.57031 0.314453 7.57031 0.943359V1.93164H4.73698C3.76302 1.93164 3.12847 2.24609 2.83333 2.875H1.90365C1.3724 2.875 0.922309 3.06966 0.553385 3.45898C0.184462 3.84831 0 4.32747 0 4.89648V21.0684C0 21.6074 0.184462 22.0641 0.553385 22.4385C0.922309 22.8128 1.3724 23 1.90365 23H15.0964C15.6276 23 16.0777 22.8053 16.4466 22.416C16.8155 22.0267 17 21.5475 17 20.9785V4.89648C17 4.32747 16.8155 3.84831 16.4466 3.45898C16.0777 3.06966 15.6276 2.875 15.0964 2.875ZM5.17969 3.81836H11.8203C12.1155 3.81836 12.263 3.98307 12.263 4.3125C12.263 4.64193 12.1155 4.80664 11.8203 4.80664H5.17969C4.88455 4.80664 4.73698 4.64193 4.73698 4.3125C4.73698 3.98307 4.88455 3.81836 5.17969 3.81836ZM15.0964 21.0684H1.90365V4.80664H2.83333C2.86285 4.95638 2.92188 5.13607 3.01042 5.3457C3.09896 5.55534 3.31293 5.83236 3.65234 6.17676C3.99175 6.52116 4.3533 6.69336 4.73698 6.69336H12.263C13.3255 6.69336 13.9601 6.06445 14.1667 4.80664H15.0964V21.0684Z" fill="#F93149"/>
</svg>
