<svg width="32" height="32" viewBox="0 0 32 32" xmlns="http://www.w3.org/2000/svg">
<path d="M6.58335 27.5486C6.37557 27.9844 6.20935 28.2957 6.08468 28.4825C5.96001 28.6693 5.73665 28.882 5.41459 29.1206C5.09253 29.3593 4.66658 29.5357 4.13675 29.6498C3.60691 29.7639 2.91604 29.8314 2.06414 29.8521C2.08492 29.1881 2.13167 28.6226 2.20439 28.1556C2.27712 27.6887 2.35503 27.3204 2.43815 27.0506C2.52126 26.7808 2.66151 26.5422 2.8589 26.3346C3.05629 26.1271 3.2329 25.9767 3.38874 25.8833C3.54457 25.7899 3.77833 25.6602 4.08999 25.4942C4.90034 25.0999 5.54445 24.716 6.02235 24.3424L4.80684 22.786C4.49517 23.0143 3.95494 23.3256 3.18615 23.7198C2.39659 24.1141 1.79922 24.5188 1.39405 24.9339C0.988883 25.3489 0.66163 26.0285 0.412294 26.9728C0.162959 27.917 0.0382908 29.1984 0.0382908 30.8171L0.0694578 31.8444L1.03563 31.8132C2.32387 31.8132 3.39393 31.751 4.24583 31.6265C5.09773 31.5019 5.7834 31.2789 6.30285 30.9572C6.8223 30.6355 7.21708 30.3087 7.48719 29.9767C7.75731 29.6446 8.03781 29.1777 8.3287 28.5759C8.64037 27.9326 8.86893 27.476 9.01437 27.2062L7.54953 25.8677C7.40408 26.0545 7.26383 26.2568 7.12877 26.4747C6.99372 26.6926 6.89502 26.869 6.83269 27.0039C6.77035 27.1388 6.68724 27.3204 6.58335 27.5486ZM22.011 5.94553C20.9098 5.94553 19.9696 6.33463 19.1904 7.11284C18.4112 7.89105 18.0216 8.83009 18.0216 9.92996C18.0216 10.6563 18.1982 11.3256 18.5515 11.9377C18.9047 12.5499 19.3878 13.0324 20.0007 13.3852C20.6137 13.738 21.2838 13.9144 22.011 13.9144C22.7382 13.9144 23.4083 13.738 24.0213 13.3852C24.6342 13.0324 25.1173 12.5499 25.4705 11.9377C25.8238 11.3256 26.0004 10.6563 26.0004 9.92996C26.0004 9.49416 25.9328 9.07393 25.7978 8.66926C25.6627 8.26459 25.4757 7.89624 25.2368 7.5642C24.9978 7.23217 24.7121 6.94682 24.3797 6.70817C24.0472 6.46952 23.6784 6.28275 23.2733 6.14786C22.8681 6.01297 22.4473 5.94553 22.011 5.94553ZM21.9954 11.9222C21.4448 11.9222 20.9773 11.725 20.5929 11.3307C20.2085 10.9364 20.0163 10.4695 20.0163 9.92996C20.0163 9.3904 20.2085 8.92348 20.5929 8.52918C20.9773 8.13489 21.45 7.93774 22.011 7.93774C22.3642 7.93774 22.6967 8.02594 23.0083 8.20233C23.32 8.37873 23.5641 8.62257 23.7408 8.93385C23.9174 9.24514 24.0057 9.57717 24.0057 9.92996C24.0057 10.4695 23.8083 10.9364 23.4135 11.3307C23.0187 11.725 22.546 11.9222 21.9954 11.9222ZM31.9533 0.964981C31.9325 0.715953 31.8338 0.503243 31.6572 0.326848C31.4806 0.150454 31.2676 0.0518807 31.0182 0.0311284C30.9351 0.0311284 30.826 0.0259403 30.691 0.0155642C30.5559 0.00518807 30.2598 0 29.8027 0C29.3456 0 28.8781 0.0103761 28.4002 0.0311284C27.9223 0.0518807 27.3353 0.0985733 26.6393 0.171206C25.9432 0.243839 25.2576 0.337224 24.5823 0.451362C23.907 0.565499 23.1694 0.726329 22.3694 0.933852C21.5695 1.14137 20.8059 1.38003 20.0786 1.64981C18.1671 2.35538 16.4737 3.56939 14.9984 5.29183C14.8114 5.49935 14.6296 5.72244 14.453 5.96109C14.2764 6.19974 14.0946 6.48508 13.9076 6.81712C13.7206 7.14916 13.5544 7.4345 13.4089 7.67315C13.2635 7.9118 13.0817 8.24384 12.8635 8.66926C12.6453 9.09468 12.4843 9.41115 12.3804 9.61868C12.2765 9.8262 12.0999 10.1738 11.8506 10.6615C11.6012 11.1492 11.4454 11.4553 11.3831 11.5798L11.1649 12.0156L10.9779 12.4047L10.7597 12.8249L10.5727 13.1829L10.3857 13.5564L10.1987 13.8833H4.651C4.36011 13.8833 4.11077 13.987 3.90299 14.1946L0.25646 18.179C0.00712389 18.4488 -0.0604045 18.7652 0.0538743 19.1284C0.168153 19.4916 0.412294 19.7147 0.786298 19.7977L6.73919 21.1673C6.98852 21.4786 7.70536 22.2879 8.88971 23.5953L11.1337 26.0856L12.3492 31.2218C12.4324 31.5953 12.6609 31.834 13.0349 31.9377C13.0557 31.9585 13.0817 31.9689 13.1128 31.9689C13.144 31.9689 13.1804 31.9741 13.2219 31.9844C13.2635 31.9948 13.2946 32 13.3154 32C13.5647 32 13.7829 31.917 13.9699 31.751L17.6788 28.0778C17.7203 28.0363 17.7671 27.9844 17.819 27.9222C17.871 27.8599 17.9125 27.7977 17.9437 27.7354C17.9749 27.6732 17.9957 27.6057 18.006 27.5331C18.0164 27.4604 18.0216 27.393 18.0216 27.3307V22.1946C18.1671 22.0908 18.3489 21.9767 18.567 21.8521C18.7852 21.7276 19.0865 21.5616 19.4709 21.3541C19.8553 21.1466 20.1098 21.0117 20.2345 20.9494C20.6085 20.7211 21.3877 20.3009 22.572 19.6887C23.7563 19.0765 24.7277 18.5473 25.4861 18.1012C26.2445 17.655 26.8315 17.2451 27.247 16.8716C28.1821 16.0415 28.8885 15.2685 29.3664 14.5525C29.8443 13.8366 30.2702 12.9702 30.6442 11.9533C30.9559 11.1025 31.2156 10.1479 31.4234 9.08949C31.6312 8.03113 31.7714 7.07652 31.8442 6.22568C31.9169 5.37484 31.9636 4.51362 31.9844 3.64202C32.0052 2.77043 32.0052 2.15824 31.9844 1.80545C31.9636 1.45266 31.9533 1.1725 31.9533 0.964981ZM28.7742 11.2374C28.4418 12.1297 28.0834 12.8664 27.699 13.4475C27.3146 14.0285 26.7276 14.6719 25.938 15.3774C25.564 15.7095 25.003 16.0934 24.255 16.5292C23.507 16.965 22.5824 17.463 21.4812 18.0233C20.3799 18.5837 19.6423 18.978 19.2683 19.2062C17.5853 20.1401 16.6295 20.7004 16.4009 20.8872C16.3386 20.9287 16.2867 20.9805 16.2451 21.0428C16.2036 21.1051 16.1672 21.1673 16.136 21.2296C16.1049 21.2918 16.0789 21.3593 16.0581 21.4319C16.0373 21.5045 16.0269 21.5824 16.0269 21.6654V26.8638L13.9076 29.1673L13.0349 25.4008C12.9726 25.214 12.8895 25.0687 12.7856 24.965C9.77277 21.6031 8.17287 19.8184 7.98586 19.6109C7.90275 19.5279 7.81445 19.4553 7.72095 19.393C7.62744 19.3307 7.52875 19.2892 7.42486 19.2685L2.87448 18.2412L5.1185 15.8755H10.7909C10.8324 15.8755 10.8844 15.8703 10.9467 15.8599C11.0091 15.8495 11.0662 15.834 11.1181 15.8132C11.1701 15.7925 11.222 15.7665 11.274 15.7354C11.3259 15.7043 11.3727 15.6732 11.4142 15.642C11.4558 15.6109 11.4921 15.5746 11.5233 15.5331C11.5545 15.4916 11.5908 15.4397 11.6324 15.3774C11.9233 14.9209 12.4323 13.9559 13.1596 12.4825C13.2219 12.3787 13.3933 12.0467 13.6738 11.4864C13.9543 10.9261 14.1465 10.537 14.2504 10.3191C14.3543 10.1012 14.5309 9.75875 14.7803 9.29183C15.0296 8.8249 15.2322 8.46174 15.388 8.20233C15.5439 7.94293 15.7257 7.65759 15.9334 7.3463C16.1412 7.03502 16.3282 6.77562 16.4944 6.56809C17.7411 5.11543 19.1644 4.09857 20.7643 3.51751C23.5278 2.4799 26.6029 1.97147 29.9897 1.99222C30.0521 5.81064 29.6469 8.89235 28.7742 11.2374Z" fill="#002958"/>
</svg>
