<svg width="24" height="19" viewBox="0 0 24 19" fill="none" xmlns="http://www.w3.org/2000/svg">
<path d="M15.9485 2.85553L16.9835 1.13407C15.2271 0.482706 13.5805 0.157025 12.0437 0.157025C8.84458 0.157025 6.10025 1.18059 3.8107 3.22773C1.52114 5.27487 0.25091 7.89583 0 11.0906C0 11.3387 0.0940913 11.5636 0.282274 11.7652C0.470456 11.9668 0.674321 12.0676 0.893867 12.0676H1.08205C1.33296 12.0676 1.55251 11.9823 1.74069 11.8118C1.92887 11.6412 2.02296 11.4318 2.02296 11.1837C2.24251 8.48516 3.30104 6.30619 5.19854 4.64677C7.09605 2.98735 9.37776 2.15764 12.0437 2.15764C13.5805 2.15764 14.8821 2.39027 15.9485 2.85553ZM20.5589 6.71717C21.4058 8.11295 21.8762 9.60178 21.9703 11.1837C21.9703 11.4008 22.0566 11.6024 22.2291 11.7885C22.4016 11.9746 22.6133 12.0676 22.8642 12.0676H23.0994C23.3503 12.0676 23.5699 11.9591 23.7581 11.742C23.9462 11.5248 24.0246 11.3077 23.9933 11.0906C23.8051 8.76431 23.0367 6.67065 21.688 4.80961L20.5589 6.71717ZM21.0764 0.157025C20.5433 -0.12213 20.0728 -0.0290787 19.6651 0.43618L18.6771 2.06459L17.6421 3.73952L13.1257 11.2767C12.7494 11.1526 12.3887 11.0906 12.0437 11.0906C10.946 11.0906 10.005 11.4783 9.22095 12.2537C8.43685 13.0292 8.04481 13.9597 8.04481 15.0453C8.04481 16.1309 8.43685 17.0614 9.22095 17.8369C10.005 18.6123 10.946 19 12.0437 19C13.1414 19 14.0823 18.6123 14.8664 17.8369C15.6505 17.0614 16.0426 16.1309 16.0426 15.0453C16.0426 13.8666 15.6505 12.9361 14.8664 12.2537L19.2887 5.04224L20.2767 3.32078L21.3587 1.5528C21.7665 0.932456 21.6724 0.467197 21.0764 0.157025ZM12.0437 17.0459C11.5105 17.0459 11.04 16.8443 10.6323 16.4411C10.2246 16.0379 10.0207 15.5726 10.0207 15.0453C10.0207 14.518 10.2246 14.0527 10.6323 13.6495C11.04 13.2463 11.5105 13.0447 12.0437 13.0447C12.5769 13.0447 13.0473 13.2463 13.4551 13.6495C13.8628 14.0527 14.0666 14.518 14.0666 15.0453C14.0666 15.5726 13.8628 16.0379 13.4551 16.4411C13.0473 16.8443 12.5769 17.0459 12.0437 17.0459Z" fill="#6896CC"/>
</svg>
