<svg width="25" height="25" viewBox="0 0 25 25" fill="none" xmlns="http://www.w3.org/2000/svg">
<path d="M22.2562 18.3721C21.474 17.5893 20.56 16.9504 19.5562 16.4846C20.9718 15.3378 21.8749 13.5878 21.8749 11.6254C21.8749 8.16299 18.9875 5.32245 15.525 5.37558C12.1156 5.4287 9.36877 8.20674 9.36877 11.6254C9.36877 13.5878 10.275 15.3378 11.6875 16.4846C10.6835 16.95 9.76945 17.589 8.98752 18.3721C7.28128 20.0814 6.31254 22.3376 6.25004 24.7438C6.24921 24.7771 6.25506 24.8103 6.26725 24.8413C6.27943 24.8724 6.29772 24.9007 6.32101 24.9246C6.34431 24.9485 6.37216 24.9674 6.4029 24.9804C6.43365 24.9933 6.46667 25 6.50004 25H8.25003C8.3844 25 8.4969 24.8938 8.50002 24.7594C8.5594 22.9469 9.29377 21.2501 10.5844 19.9626C11.2448 19.2987 12.0304 18.7724 12.8956 18.4141C13.7608 18.0557 14.6885 17.8726 15.625 17.8752C17.5281 17.8752 19.3187 18.6158 20.6656 19.9626C21.9531 21.2501 22.6874 22.9469 22.7499 24.7594C22.7531 24.8938 22.8656 25 22.9999 25H24.7499C24.7833 25 24.8163 24.9933 24.8471 24.9804C24.8778 24.9674 24.9056 24.9485 24.9289 24.9246C24.9522 24.9007 24.9705 24.8724 24.9827 24.8413C24.9949 24.8103 25.0008 24.7771 24.9999 24.7438C24.9374 22.3376 23.9687 20.0814 22.2562 18.3721ZM15.625 15.6253C14.5562 15.6253 13.55 15.2097 12.7969 14.4534C12.4189 14.0785 12.1204 13.6312 11.919 13.1383C11.7177 12.6455 11.6177 12.1171 11.625 11.5848C11.6344 10.5598 12.0438 9.5692 12.7594 8.83485C13.5094 8.06612 14.5125 7.63801 15.5844 7.62551C16.6437 7.61614 17.6718 8.02862 18.4281 8.76923C19.2031 9.52858 19.6281 10.5442 19.6281 11.6254C19.6281 12.6941 19.2125 13.6972 18.4562 14.4534C18.0852 14.8262 17.6439 15.1217 17.158 15.3229C16.672 15.524 16.1509 15.6268 15.625 15.6253ZM7.7969 12.4504C7.76878 12.1785 7.75315 11.9035 7.75315 11.6254C7.75315 11.1285 7.80003 10.6442 7.88753 10.1723C7.9094 10.0598 7.85003 9.94419 7.7469 9.89732C7.32191 9.7067 6.93128 9.44421 6.59379 9.11297C6.1961 8.72738 5.88316 8.26312 5.67493 7.74983C5.46671 7.23653 5.36776 6.68547 5.38442 6.1318C5.41254 5.12871 5.81567 4.17561 6.51879 3.45688C7.29066 2.66628 8.32815 2.23504 9.43127 2.24754C10.4281 2.25692 11.3906 2.64128 12.1188 3.32251C12.3656 3.55375 12.5781 3.81 12.7562 4.08499C12.8187 4.18186 12.9406 4.22248 13.0469 4.18499C13.5969 3.99437 14.1781 3.85999 14.775 3.7975C14.95 3.77875 15.05 3.59125 14.9719 3.43501C13.9562 1.42569 11.8813 0.0382321 9.48127 0.00073322C6.01567 -0.0523902 3.12818 2.78815 3.12818 6.24743C3.12818 8.20987 4.0313 9.95982 5.44692 11.1067C4.45318 11.566 3.53756 12.2004 2.74381 12.9941C1.03132 14.7034 0.0625778 16.9596 7.81433e-05 19.3689C-0.00075593 19.4023 0.00509412 19.4354 0.0172838 19.4665C0.0294734 19.4976 0.0477559 19.5259 0.071054 19.5497C0.094352 19.5736 0.122195 19.5926 0.15294 19.6055C0.183686 19.6185 0.216714 19.6252 0.250077 19.6252H2.00319C2.13757 19.6252 2.25006 19.5189 2.25319 19.3845C2.31256 17.5721 3.04693 15.8753 4.33755 14.5878C5.2563 13.6691 6.38129 13.0316 7.60941 12.7222C7.73128 12.691 7.81253 12.5754 7.7969 12.4504Z" fill="#F93149"/>
</svg>
